solid cover_v5
facet normal 0.0 0.0 -1.0
  outer loop
    vertex 0.0 45.0 0.0
    vertex 6.0 17.926914437597134 0.0
    vertex 0.0 -1.9999999999999998 0.0
  endloop
endfacet
facet normal 0.0 0.0 -1.0
  outer loop
    vertex 6.0 17.926914437597134 0.0
    vertex 0.0 45.0 0.0
    vertex 33.60000000000001 35.926914437597134 0.0
  endloop
endfacet
facet normal 0.0 0.0 -1.0
  outer loop
    vertex 33.60000000000001 35.926914437597134 0.0
    vertex 0.0 45.0 0.0
    vertex 54.300000000000004 45.0 0.0
  endloop
endfacet
facet normal 0.0 0.0 -1.0
  outer loop
    vertex 33.60000000000001 35.926914437597134 0.0
    vertex 54.300000000000004 45.0 0.0
    vertex 41.300000000000004 35.926914437597134 0.0
  endloop
endfacet
facet normal 0.0 0.0 -1.0
  outer loop
    vertex 0.0 -1.9999999999999998 0.0
    vertex 31.799999999999997 1.826914437597136 0.0
    vertex 54.300000000000004 -1.9999999999999998 0.0
  endloop
endfacet
facet normal 0.0 0.0 -1.0
  outer loop
    vertex 31.799999999999997 1.826914437597136 0.0
    vertex 0.0 -1.9999999999999998 0.0
    vertex 6.0 6.626914437597136 0.0
  endloop
endfacet
facet normal 0.0 0.0 -1.0
  outer loop
    vertex 6.0 6.626914437597136 0.0
    vertex 0.0 -1.9999999999999998 0.0
    vertex 6.0 17.926914437597134 0.0
  endloop
endfacet
facet normal 0.0 0.0 -1.0
  outer loop
    vertex 31.799999999999997 1.826914437597136 0.0
    vertex 6.0 6.626914437597136 0.0
    vertex 31.799999999999997 6.626914437597136 0.0
  endloop
endfacet
facet normal 0.0 0.0 -1.0
  outer loop
    vertex 54.300000000000004 -1.9999999999999998 0.0
    vertex 31.799999999999997 1.826914437597136 0.0
    vertex 40.9 1.826914437597136 0.0
  endloop
endfacet
facet normal 0.0 0.0 -1.0
  outer loop
    vertex 54.300000000000004 -1.9999999999999998 0.0
    vertex 40.9 1.826914437597136 0.0
    vertex 41.300000000000004 35.926914437597134 0.0
  endloop
endfacet
facet normal 0.0 0.0 -1.0
  outer loop
    vertex 54.300000000000004 -1.9999999999999998 0.0
    vertex 41.300000000000004 35.926914437597134 0.0
    vertex 54.300000000000004 45.0 0.0
  endloop
endfacet
facet normal 0.0 0.0 -1.0
  outer loop
    vertex 33.60000000000001 17.926914437597134 0.0
    vertex 6.0 17.926914437597134 0.0
    vertex 33.60000000000001 35.926914437597134 0.0
  endloop
endfacet
facet normal 0.0 0.0 -1.0
  outer loop
    vertex 0.9999999999999999 42.0 1.2000000000000006
    vertex 6.0 17.926914437597134 1.2000000000000006
    vertex 0.9999999999999999 0.9999999999999999 1.2000000000000006
  endloop
endfacet
facet normal 0.0 0.0 -1.0
  outer loop
    vertex 6.0 17.926914437597134 1.2000000000000006
    vertex 0.9999999999999999 42.0 1.2000000000000006
    vertex 33.60000000000001 35.926914437597134 1.2000000000000006
  endloop
endfacet
facet normal 0.0 0.0 -1.0
  outer loop
    vertex 33.60000000000001 35.926914437597134 1.2000000000000006
    vertex 0.9999999999999999 42.0 1.2000000000000006
    vertex 53.300000000000004 42.0 1.2000000000000006
  endloop
endfacet
facet normal 0.0 0.0 -1.0
  outer loop
    vertex 33.60000000000001 35.926914437597134 1.2000000000000006
    vertex 53.300000000000004 42.0 1.2000000000000006
    vertex 41.300000000000004 35.926914437597134 1.2000000000000006
  endloop
endfacet
facet normal 0.0 0.0 -1.0
  outer loop
    vertex 0.9999999999999999 0.9999999999999999 1.2000000000000006
    vertex 31.799999999999997 1.826914437597136 1.2000000000000006
    vertex 53.300000000000004 0.9999999999999999 1.2000000000000006
  endloop
endfacet
facet normal 0.0 0.0 -1.0
  outer loop
    vertex 31.799999999999997 1.826914437597136 1.2000000000000006
    vertex 0.9999999999999999 0.9999999999999999 1.2000000000000006
    vertex 6.0 6.626914437597136 1.2000000000000006
  endloop
endfacet
facet normal 0.0 0.0 -1.0
  outer loop
    vertex 6.0 6.626914437597136 1.2000000000000006
    vertex 0.9999999999999999 0.9999999999999999 1.2000000000000006
    vertex 6.0 17.926914437597134 1.2000000000000006
  endloop
endfacet
facet normal 0.0 0.0 -1.0
  outer loop
    vertex 31.799999999999997 1.826914437597136 1.2000000000000006
    vertex 6.0 6.626914437597136 1.2000000000000006
    vertex 31.799999999999997 6.626914437597136 1.2000000000000006
  endloop
endfacet
facet normal 0.0 0.0 -1.0
  outer loop
    vertex 53.300000000000004 0.9999999999999999 1.2000000000000006
    vertex 31.799999999999997 1.826914437597136 1.2000000000000006
    vertex 40.9 1.826914437597136 1.2000000000000006
  endloop
endfacet
facet normal 0.0 0.0 -1.0
  outer loop
    vertex 53.300000000000004 0.9999999999999999 1.2000000000000006
    vertex 40.9 1.826914437597136 1.2000000000000006
    vertex 41.300000000000004 35.926914437597134 1.2000000000000006
  endloop
endfacet
facet normal 0.0 0.0 -1.0
  outer loop
    vertex 53.300000000000004 0.9999999999999999 1.2000000000000006
    vertex 41.300000000000004 35.926914437597134 1.2000000000000006
    vertex 53.300000000000004 42.0 1.2000000000000006
  endloop
endfacet
facet normal 0.0 0.0 -1.0
  outer loop
    vertex 33.60000000000001 17.926914437597134 1.2000000000000006
    vertex 6.0 17.926914437597134 1.2000000000000006
    vertex 33.60000000000001 35.926914437597134 1.2000000000000006
  endloop
endfacet
facet normal 1.0 -0.0 -0.0
  outer loop
    vertex 54.300000000000004 45.0 0.0
    vertex 54.300000000000004 -1.9999999999999998 0.9999999999999999
    vertex 54.300000000000004 -1.9999999999999998 0.0
  endloop
endfacet
facet normal 1.0 -0.0 -0.0
  outer loop
    vertex 54.300000000000004 -1.9999999999999998 0.9999999999999999
    vertex 54.300000000000004 45.0 0.0
    vertex 54.300000000000004 0.0 0.9999999999999999
  endloop
endfacet
facet normal 1.0 -0.0 -0.0
  outer loop
    vertex 54.300000000000004 0.0 0.9999999999999999
    vertex 54.300000000000004 45.0 0.0
    vertex 54.300000000000004 0.0 2.499999999999999
  endloop
endfacet
facet normal 1.0 -0.0 -0.0
  outer loop
    vertex 54.300000000000004 0.0 2.499999999999999
    vertex 54.300000000000004 45.0 0.0
    vertex 54.300000000000004 43.0 1.4
  endloop
endfacet
facet normal 1.0 -0.0 -0.0
  outer loop
    vertex 54.300000000000004 43.0 1.4
    vertex 54.300000000000004 45.0 0.0
    vertex 54.300000000000004 45.0 1.4
  endloop
endfacet
facet normal 1.0 -0.0 -0.0
  outer loop
    vertex 54.300000000000004 43.0 2.499999999999999
    vertex 54.300000000000004 0.0 2.499999999999999
    vertex 54.300000000000004 43.0 1.4
  endloop
endfacet
facet normal -1.0 0.0 0.0
  outer loop
    vertex 0.0 43.0 2.499999999999999
    vertex 0.0 0.0 0.9999999999999999
    vertex 0.0 0.0 2.499999999999999
  endloop
endfacet
facet normal -1.0 0.0 0.0
  outer loop
    vertex 0.0 0.0 0.9999999999999999
    vertex 0.0 -1.9999999999999998 0.0
    vertex 0.0 -1.9999999999999998 0.9999999999999999
  endloop
endfacet
facet normal -1.0 0.0 0.0
  outer loop
    vertex 0.0 -1.9999999999999998 0.0
    vertex 0.0 0.0 0.9999999999999999
    vertex 0.0 45.0 0.0
  endloop
endfacet
facet normal -1.0 0.0 0.0
  outer loop
    vertex 0.0 45.0 0.0
    vertex 0.0 0.0 0.9999999999999999
    vertex 0.0 43.0 1.4
  endloop
endfacet
facet normal -1.0 0.0 0.0
  outer loop
    vertex 0.0 43.0 1.4
    vertex 0.0 0.0 0.9999999999999999
    vertex 0.0 43.0 2.499999999999999
  endloop
endfacet
facet normal -1.0 0.0 0.0
  outer loop
    vertex 0.0 45.0 0.0
    vertex 0.0 43.0 1.4
    vertex 0.0 45.0 1.4
  endloop
endfacet
facet normal 0.0 0.0 1.0
  outer loop
    vertex 54.300000000000004 43.0 1.4
    vertex 0.0 45.0 1.4
    vertex 0.0 43.0 1.4
  endloop
endfacet
facet normal 0.0 0.0 1.0
  outer loop
    vertex 0.0 45.0 1.4
    vertex 54.300000000000004 43.0 1.4
    vertex 54.300000000000004 45.0 1.4
  endloop
endfacet
facet normal -0.0 1.0 0.0
  outer loop
    vertex 0.0 45.0 1.4
    vertex 54.300000000000004 45.0 0.0
    vertex 0.0 45.0 0.0
  endloop
endfacet
facet normal -0.0 1.0 0.0
  outer loop
    vertex 54.300000000000004 45.0 0.0
    vertex 0.0 45.0 1.4
    vertex 54.300000000000004 45.0 1.4
  endloop
endfacet
facet normal -0.0 -0.0 1.0
  outer loop
    vertex 54.300000000000004 -1.9999999999999998 0.9999999999999999
    vertex 0.0 0.0 0.9999999999999999
    vertex 0.0 -1.9999999999999998 0.9999999999999999
  endloop
endfacet
facet normal -0.0 -0.0 1.0
  outer loop
    vertex 0.0 0.0 0.9999999999999999
    vertex 54.300000000000004 -1.9999999999999998 0.9999999999999999
    vertex 54.300000000000004 0.0 0.9999999999999999
  endloop
endfacet
facet normal -0.0 -1.0 -0.0
  outer loop
    vertex 54.300000000000004 -1.9999999999999998 0.9999999999999999
    vertex 0.0 -1.9999999999999998 0.0
    vertex 54.300000000000004 -1.9999999999999998 0.0
  endloop
endfacet
facet normal -0.0 -1.0 -0.0
  outer loop
    vertex 0.0 -1.9999999999999998 0.0
    vertex 54.300000000000004 -1.9999999999999998 0.9999999999999999
    vertex 0.0 -1.9999999999999998 0.9999999999999999
  endloop
endfacet
facet normal 0.0 0.0 1.0
  outer loop
    vertex 0.0 0.0 2.499999999999999
    vertex 0.9999999999999999 0.9999999999999999 2.499999999999999
    vertex 0.0 43.0 2.499999999999999
  endloop
endfacet
facet normal 0.0 0.0 1.0
  outer loop
    vertex 0.9999999999999999 0.9999999999999999 2.499999999999999
    vertex 0.0 0.0 2.499999999999999
    vertex 54.300000000000004 0.0 2.499999999999999
  endloop
endfacet
facet normal 0.0 0.0 1.0
  outer loop
    vertex 0.9999999999999999 0.9999999999999999 2.499999999999999
    vertex 54.300000000000004 0.0 2.499999999999999
    vertex 53.300000000000004 0.9999999999999999 2.499999999999999
  endloop
endfacet
facet normal 0.0 0.0 1.0
  outer loop
    vertex 53.300000000000004 0.9999999999999999 2.499999999999999
    vertex 54.300000000000004 0.0 2.499999999999999
    vertex 53.300000000000004 42.0 2.499999999999999
  endloop
endfacet
facet normal 0.0 0.0 1.0
  outer loop
    vertex 0.0 43.0 2.499999999999999
    vertex 0.9999999999999999 42.0 2.499999999999999
    vertex 54.300000000000004 43.0 2.499999999999999
  endloop
endfacet
facet normal 0.0 0.0 1.0
  outer loop
    vertex 0.9999999999999999 42.0 2.499999999999999
    vertex 0.0 43.0 2.499999999999999
    vertex 0.9999999999999999 0.9999999999999999 2.499999999999999
  endloop
endfacet
facet normal 0.0 0.0 1.0
  outer loop
    vertex 54.300000000000004 43.0 2.499999999999999
    vertex 0.9999999999999999 42.0 2.499999999999999
    vertex 53.300000000000004 42.0 2.499999999999999
  endloop
endfacet
facet normal 0.0 0.0 1.0
  outer loop
    vertex 54.300000000000004 43.0 2.499999999999999
    vertex 53.300000000000004 42.0 2.499999999999999
    vertex 54.300000000000004 0.0 2.499999999999999
  endloop
endfacet
facet normal 0.0 1.0 0.0
  outer loop
    vertex 0.0 43.0 2.499999999999999
    vertex 54.300000000000004 43.0 1.4
    vertex 0.0 43.0 1.4
  endloop
endfacet
facet normal 0.0 1.0 0.0
  outer loop
    vertex 54.300000000000004 43.0 1.4
    vertex 0.0 43.0 2.499999999999999
    vertex 54.300000000000004 43.0 2.499999999999999
  endloop
endfacet
facet normal 0.0 -1.0 0.0
  outer loop
    vertex 54.300000000000004 0.0 2.499999999999999
    vertex 0.0 0.0 0.9999999999999999
    vertex 54.300000000000004 0.0 0.9999999999999999
  endloop
endfacet
facet normal 0.0 -1.0 0.0
  outer loop
    vertex 0.0 0.0 0.9999999999999999
    vertex 54.300000000000004 0.0 2.499999999999999
    vertex 0.0 0.0 2.499999999999999
  endloop
endfacet
facet normal -0.0 1.0 -0.0
  outer loop
    vertex 0.9999999999999999 0.9999999999999999 2.499999999999999
    vertex 53.300000000000004 0.9999999999999999 1.2000000000000006
    vertex 0.9999999999999999 0.9999999999999999 1.2000000000000006
  endloop
endfacet
facet normal -0.0 1.0 -0.0
  outer loop
    vertex 53.300000000000004 0.9999999999999999 1.2000000000000006
    vertex 0.9999999999999999 0.9999999999999999 2.499999999999999
    vertex 53.300000000000004 0.9999999999999999 2.499999999999999
  endloop
endfacet
facet normal 1.0 -0.0 -0.0
  outer loop
    vertex 0.9999999999999999 42.0 1.2000000000000006
    vertex 0.9999999999999999 0.9999999999999999 2.499999999999999
    vertex 0.9999999999999999 0.9999999999999999 1.2000000000000006
  endloop
endfacet
facet normal 1.0 -0.0 -0.0
  outer loop
    vertex 0.9999999999999999 0.9999999999999999 2.499999999999999
    vertex 0.9999999999999999 42.0 1.2000000000000006
    vertex 0.9999999999999999 42.0 2.499999999999999
  endloop
endfacet
facet normal 0.0 -1.0 0.0
  outer loop
    vertex 53.300000000000004 42.0 2.499999999999999
    vertex 0.9999999999999999 42.0 1.2000000000000006
    vertex 53.300000000000004 42.0 1.2000000000000006
  endloop
endfacet
facet normal 0.0 -1.0 0.0
  outer loop
    vertex 0.9999999999999999 42.0 1.2000000000000006
    vertex 53.300000000000004 42.0 2.499999999999999
    vertex 0.9999999999999999 42.0 2.499999999999999
  endloop
endfacet
facet normal -1.0 0.0 0.0
  outer loop
    vertex 53.300000000000004 42.0 2.499999999999999
    vertex 53.300000000000004 0.9999999999999999 1.2000000000000006
    vertex 53.300000000000004 0.9999999999999999 2.499999999999999
  endloop
endfacet
facet normal -1.0 0.0 0.0
  outer loop
    vertex 53.300000000000004 0.9999999999999999 1.2000000000000006
    vertex 53.300000000000004 42.0 2.499999999999999
    vertex 53.300000000000004 42.0 1.2000000000000006
  endloop
endfacet
facet normal -1.0 0.0 0.0
  outer loop
    vertex 31.799999999999997 6.626914437597136 1.2000000000000006
    vertex 31.799999999999997 1.826914437597136 0.0
    vertex 31.799999999999997 1.826914437597136 1.2000000000000006
  endloop
endfacet
facet normal -1.0 0.0 0.0
  outer loop
    vertex 31.799999999999997 1.826914437597136 0.0
    vertex 31.799999999999997 6.626914437597136 1.2000000000000006
    vertex 31.799999999999997 6.626914437597136 0.0
  endloop
endfacet
facet normal 0.0 -1.0 0.0
  outer loop
    vertex 31.799999999999997 6.626914437597136 1.2000000000000006
    vertex 6.0 6.626914437597136 0.0
    vertex 31.799999999999997 6.626914437597136 0.0
  endloop
endfacet
facet normal 0.0 -1.0 0.0
  outer loop
    vertex 6.0 6.626914437597136 0.0
    vertex 31.799999999999997 6.626914437597136 1.2000000000000006
    vertex 6.0 6.626914437597136 1.2000000000000006
  endloop
endfacet
facet normal 0.0 -1.0 0.0
  outer loop
    vertex 40.9 1.826914437597136 1.2000000000000006
    vertex 31.799999999999997 1.826914437597136 0.0
    vertex 40.9 1.826914437597136 0.0
  endloop
endfacet
facet normal 0.0 -1.0 0.0
  outer loop
    vertex 31.799999999999997 1.826914437597136 0.0
    vertex 40.9 1.826914437597136 1.2000000000000006
    vertex 31.799999999999997 1.826914437597136 1.2000000000000006
  endloop
endfacet
facet normal -1.0 0.0 0.0
  outer loop
    vertex 6.0 17.926914437597134 1.2000000000000006
    vertex 6.0 6.626914437597136 0.0
    vertex 6.0 6.626914437597136 1.2000000000000006
  endloop
endfacet
facet normal -1.0 0.0 0.0
  outer loop
    vertex 6.0 6.626914437597136 0.0
    vertex 6.0 17.926914437597134 1.2000000000000006
    vertex 6.0 17.926914437597134 0.0
  endloop
endfacet
facet normal -0.0 1.0 -0.0
  outer loop
    vertex 33.60000000000001 35.926914437597134 1.2000000000000006
    vertex 41.300000000000004 35.926914437597134 0.0
    vertex 33.60000000000001 35.926914437597134 0.0
  endloop
endfacet
facet normal -0.0 1.0 -0.0
  outer loop
    vertex 41.300000000000004 35.926914437597134 0.0
    vertex 33.60000000000001 35.926914437597134 1.2000000000000006
    vertex 41.300000000000004 35.926914437597134 1.2000000000000006
  endloop
endfacet
facet normal -1.0 0.0 0.0
  outer loop
    vertex 33.60000000000001 35.926914437597134 1.2000000000000006
    vertex 33.60000000000001 17.926914437597134 0.0
    vertex 33.60000000000001 17.926914437597134 1.2000000000000006
  endloop
endfacet
facet normal -1.0 0.0 0.0
  outer loop
    vertex 33.60000000000001 17.926914437597134 0.0
    vertex 33.60000000000001 35.926914437597134 1.2000000000000006
    vertex 33.60000000000001 35.926914437597134 0.0
  endloop
endfacet
facet normal -0.0 1.0 -0.0
  outer loop
    vertex 6.0 17.926914437597134 1.2000000000000006
    vertex 33.60000000000001 17.926914437597134 0.0
    vertex 6.0 17.926914437597134 0.0
  endloop
endfacet
facet normal -0.0 1.0 -0.0
  outer loop
    vertex 33.60000000000001 17.926914437597134 0.0
    vertex 6.0 17.926914437597134 1.2000000000000006
    vertex 33.60000000000001 17.926914437597134 1.2000000000000006
  endloop
endfacet
endsolid cover_v5
